<?xml version="1.0" encoding="UTF-8"?>
<svg width="256" height="256" viewBox="0 0 256 256" fill="none" xmlns="http://www.w3.org/2000/svg" role="img" aria-label="mn">
  <defs>
    <linearGradient id="g" x1="32" y1="24" x2="224" y2="232" gradientUnits="userSpaceOnUse">
      <stop stop-color="#7BD3A0"/>
      <stop offset="1" stop-color="#4AA86B"/>
    </linearGradient>
    <filter id="s" x="-20%" y="-20%" width="140%" height="140%">
      <feDropShadow dx="0" dy="10" stdDeviation="14" flood-color="#000000" flood-opacity="0.45"/>
    </filter>
  </defs>
  <rect x="20" y="20" width="216" height="216" rx="56" fill="#0B0F0C" stroke="#1A271F" stroke-width="4"/>
  <path filter="url(#s)" d="M70 170V98c0-10.5 8.5-19 19-19h0c10.5 0 19 8.5 19 19v32.5c6.6-17.2 19.8-28.8 38-28.8 22.1 0 40 17.9 40 40V170h-18v-28.5c0-12.2-9.9-22.1-22.1-22.1-13.1 0-23.9 10.7-23.9 23.9V170h-18V98c0-.6-.1-1.2-.2-1.8-1.1-6.5-6.7-11.5-13.5-11.5-7.6 0-13.8 6.2-13.8 13.8V170H70Z" fill="url(#g)"/>
</svg>
